<svg width="15" height="15" viewBox="0 0 15 15" fill="none" xmlns="http://www.w3.org/2000/svg">
<path d="M8.55748 7.49995L14.025 2.03245C14.1479 1.88898 14.2121 1.70442 14.2048 1.51566C14.1975 1.3269 14.1192 1.14785 13.9857 1.01428C13.8521 0.880709 13.673 0.802459 13.4843 0.795168C13.2955 0.787877 13.111 0.852082 12.9675 0.974952L7.49998 6.44245L2.03248 0.967452C1.889 0.844582 1.70445 0.780378 1.51569 0.787669C1.32693 0.79496 1.14788 0.873209 1.01431 1.00678C0.880737 1.14035 0.802487 1.3194 0.795197 1.50816C0.787906 1.69692 0.852111 1.88148 0.97498 2.02495L6.44248 7.49995L0.96748 12.9675C0.888969 13.0347 0.825204 13.1174 0.780186 13.2105C0.735169 13.3035 0.709871 13.4049 0.705881 13.5082C0.701892 13.6115 0.719296 13.7145 0.757002 13.8107C0.794708 13.9069 0.851902 13.9943 0.924993 14.0674C0.998084 14.1405 1.08549 14.1977 1.18174 14.2354C1.27798 14.2731 1.38098 14.2905 1.48427 14.2866C1.58756 14.2826 1.68891 14.2573 1.78196 14.2122C1.87501 14.1672 1.95774 14.1035 2.02498 14.025L7.49998 8.55745L12.9675 14.025C13.111 14.1478 13.2955 14.212 13.4843 14.2047C13.673 14.1974 13.8521 14.1192 13.9857 13.9856C14.1192 13.8521 14.1975 13.673 14.2048 13.4842C14.2121 13.2955 14.1479 13.1109 14.025 12.9675L8.55748 7.49995Z" fill="#B7BBCA"/>
</svg>